<?xml version="1.0" encoding="UTF-8"?>
<!--Generator: Apple Native CoreSVG 175.5-->
<!DOCTYPE svg
PUBLIC "-//W3C//DTD SVG 1.1//EN"
       "http://www.w3.org/Graphics/SVG/1.1/DTD/svg11.dtd">
<svg version="1.1" xmlns="http://www.w3.org/2000/svg" xmlns:xlink="http://www.w3.org/1999/xlink" width="3300" height="2200">
 <!--glyph: "uni10017E.medium", point size: 100.0, font version: "18.0d12e2", template writer version: "101"-->
 <g id="Notes">
  <rect height="2200" id="artboard" style="fill:white;opacity:1" width="3300" x="0" y="0"/>
  <line style="fill:none;stroke:black;opacity:1;stroke-width:0.5;" x1="263" x2="3036" y1="292" y2="292"/>
  <text style="stroke:none;fill:black;font-family:sans-serif;font-size:13;font-weight:bold;" transform="matrix(1 0 0 1 263 322)">Weight/Scale Variations</text>
  <text style="stroke:none;fill:black;font-family:sans-serif;font-size:13;text-anchor:middle;" transform="matrix(1 0 0 1 559.711 322)">Ultralight</text>
  <text style="stroke:none;fill:black;font-family:sans-serif;font-size:13;text-anchor:middle;" transform="matrix(1 0 0 1 856.422 322)">Thin</text>
  <text style="stroke:none;fill:black;font-family:sans-serif;font-size:13;text-anchor:middle;" transform="matrix(1 0 0 1 1153.13 322)">Light</text>
  <text style="stroke:none;fill:black;font-family:sans-serif;font-size:13;text-anchor:middle;" transform="matrix(1 0 0 1 1449.84 322)">Regular</text>
  <text style="stroke:none;fill:black;font-family:sans-serif;font-size:13;text-anchor:middle;" transform="matrix(1 0 0 1 1746.56 322)">Medium</text>
  <text style="stroke:none;fill:black;font-family:sans-serif;font-size:13;text-anchor:middle;" transform="matrix(1 0 0 1 2043.27 322)">Semibold</text>
  <text style="stroke:none;fill:black;font-family:sans-serif;font-size:13;text-anchor:middle;" transform="matrix(1 0 0 1 2339.98 322)">Bold</text>
  <text style="stroke:none;fill:black;font-family:sans-serif;font-size:13;text-anchor:middle;" transform="matrix(1 0 0 1 2636.69 322)">Heavy</text>
  <text style="stroke:none;fill:black;font-family:sans-serif;font-size:13;text-anchor:middle;" transform="matrix(1 0 0 1 2933.4 322)">Black</text>
  <line style="fill:none;stroke:black;opacity:1;stroke-width:0.5;" x1="263" x2="3036" y1="1903" y2="1903"/>
  <g transform="matrix(1 0 0 1 263 1933)">
   <path d="M9.24805 0.830078C13.5547 0.830078 17.1387-2.74414 17.1387-7.05078C17.1387-11.3574 13.5449-14.9316 9.23828-14.9316C4.94141-14.9316 1.36719-11.3574 1.36719-7.05078C1.36719-2.74414 4.95117 0.830078 9.24805 0.830078ZM9.24805-0.654297C5.70312-0.654297 2.87109-3.49609 2.87109-7.05078C2.87109-10.6055 5.69336-13.4473 9.23828-13.4473C12.793-13.4473 15.6445-10.6055 15.6445-7.05078C15.6445-3.49609 12.8027-0.654297 9.24805-0.654297ZM5.6543-7.05078C5.6543-6.62109 5.95703-6.32812 6.40625-6.32812L8.50586-6.32812L8.50586-4.20898C8.50586-3.76953 8.79883-3.4668 9.22852-3.4668C9.67773-3.4668 9.9707-3.76953 9.9707-4.20898L9.9707-6.32812L12.0898-6.32812C12.5293-6.32812 12.832-6.62109 12.832-7.05078C12.832-7.49023 12.5293-7.79297 12.0898-7.79297L9.9707-7.79297L9.9707-9.90234C9.9707-10.3516 9.67773-10.6543 9.22852-10.6543C8.79883-10.6543 8.50586-10.3516 8.50586-9.90234L8.50586-7.79297L6.40625-7.79297C5.95703-7.79297 5.6543-7.49023 5.6543-7.05078Z"/>
  </g>
  <g transform="matrix(1 0 0 1 281.867 1933)">
   <path d="M11.709 2.91016C17.1582 2.91016 21.6699-1.61133 21.6699-7.05078C21.6699-12.5 17.1484-17.0117 11.6992-17.0117C6.25977-17.0117 1.74805-12.5 1.74805-7.05078C1.74805-1.61133 6.26953 2.91016 11.709 2.91016ZM11.709 1.25C7.09961 1.25 3.41797-2.44141 3.41797-7.05078C3.41797-11.6602 7.08984-15.3516 11.6992-15.3516C16.3086-15.3516 20.0098-11.6602 20.0098-7.05078C20.0098-2.44141 16.3184 1.25 11.709 1.25ZM7.17773-7.05078C7.17773-6.57227 7.50977-6.25 8.00781-6.25L10.8789-6.25L10.8789-3.36914C10.8789-2.88086 11.2109-2.53906 11.6895-2.53906C12.1777-2.53906 12.5195-2.87109 12.5195-3.36914L12.5195-6.25L15.4004-6.25C15.8887-6.25 16.2305-6.57227 16.2305-7.05078C16.2305-7.53906 15.8887-7.88086 15.4004-7.88086L12.5195-7.88086L12.5195-10.752C12.5195-11.25 12.1777-11.5918 11.6895-11.5918C11.2109-11.5918 10.8789-11.25 10.8789-10.752L10.8789-7.88086L8.00781-7.88086C7.50977-7.88086 7.17773-7.53906 7.17773-7.05078Z"/>
  </g>
  <g transform="matrix(1 0 0 1 305.646 1933)">
   <path d="M14.9707 5.66406C21.9336 5.66406 27.6953-0.0976562 27.6953-7.05078C27.6953-14.0137 21.9238-19.7754 14.9609-19.7754C8.00781-19.7754 2.25586-14.0137 2.25586-7.05078C2.25586-0.0976562 8.01758 5.66406 14.9707 5.66406ZM14.9707 3.84766C8.93555 3.84766 4.08203-1.01562 4.08203-7.05078C4.08203-13.0957 8.92578-17.9492 14.9609-17.9492C21.0059-17.9492 25.8691-13.0957 25.8691-7.05078C25.8691-1.01562 21.0156 3.84766 14.9707 3.84766ZM9.19922-7.05078C9.19922-6.5332 9.57031-6.17188 10.1172-6.17188L14.0625-6.17188L14.0625-2.2168C14.0625-1.67969 14.4336-1.29883 14.9512-1.29883C15.4883-1.29883 15.8594-1.66992 15.8594-2.2168L15.8594-6.17188L19.8145-6.17188C20.3516-6.17188 20.7324-6.5332 20.7324-7.05078C20.7324-7.59766 20.3613-7.96875 19.8145-7.96875L15.8594-7.96875L15.8594-11.9141C15.8594-12.4609 15.4883-12.8418 14.9512-12.8418C14.4336-12.8418 14.0625-12.4609 14.0625-11.9141L14.0625-7.96875L10.1172-7.96875C9.57031-7.96875 9.19922-7.59766 9.19922-7.05078Z"/>
  </g>
  <text style="stroke:none;fill:black;font-family:sans-serif;font-size:13;font-weight:bold;" transform="matrix(1 0 0 1 263 1953)">Design Variations</text>
  <text style="stroke:none;fill:black;font-family:sans-serif;font-size:13;" transform="matrix(1 0 0 1 263 1971)">Symbols are supported in up to nine weights and three scales.</text>
  <text style="stroke:none;fill:black;font-family:sans-serif;font-size:13;" transform="matrix(1 0 0 1 263 1989)">For optimal layout with text and other symbols, vertically align</text>
  <text style="stroke:none;fill:black;font-family:sans-serif;font-size:13;" transform="matrix(1 0 0 1 263 2007)">symbols with the adjacent text.</text>
  <line style="fill:none;stroke:#00AEEF;stroke-width:0.5;opacity:1.0;" x1="776" x2="776" y1="1919" y2="1933"/>
  <g transform="matrix(1 0 0 1 776 1933)">
   <path d="M3.31055 0.15625C3.82812 0.15625 4.08203-0.0390625 4.26758-0.585938L5.52734-4.0332L11.2891-4.0332L12.5488-0.585938C12.7344-0.0390625 12.9883 0.15625 13.4961 0.15625C14.0137 0.15625 14.3457-0.15625 14.3457-0.644531C14.3457-0.810547 14.3164-0.966797 14.2383-1.17188L9.6582-13.3691C9.43359-13.9648 9.0332-14.2676 8.4082-14.2676C7.80273-14.2676 7.39258-13.9746 7.17773-13.3789L2.59766-1.16211C2.51953-0.957031 2.49023-0.800781 2.49023-0.634766C2.49023-0.146484 2.80273 0.15625 3.31055 0.15625ZM6.00586-5.51758L8.37891-12.0898L8.42773-12.0898L10.8008-5.51758Z"/>
  </g>
  <line style="fill:none;stroke:#00AEEF;stroke-width:0.5;opacity:1.0;" x1="793.197" x2="793.197" y1="1919" y2="1933"/>
  <text style="stroke:none;fill:black;font-family:sans-serif;font-size:13;font-weight:bold;" transform="matrix(1 0 0 1 776 1953)">Margins</text>
  <text style="stroke:none;fill:black;font-family:sans-serif;font-size:13;" transform="matrix(1 0 0 1 776 1971)">Leading and trailing margins on the left and right side of each symbol</text>
  <text style="stroke:none;fill:black;font-family:sans-serif;font-size:13;" transform="matrix(1 0 0 1 776 1989)">can be adjusted by modifying the x-location of the margin guidelines.</text>
  <text style="stroke:none;fill:black;font-family:sans-serif;font-size:13;" transform="matrix(1 0 0 1 776 2007)">Modifications are automatically applied proportionally to all</text>
  <text style="stroke:none;fill:black;font-family:sans-serif;font-size:13;" transform="matrix(1 0 0 1 776 2025)">scales and weights.</text>
  <g transform="matrix(1 0 0 1 1289 1933)">
   <path d="M2.8418 1.86523L4.54102 3.57422C5.40039 4.44336 6.38672 4.38477 7.31445 3.35938L18.0078-8.42773L17.041-9.4043L6.42578 2.27539C6.07422 2.67578 5.74219 2.77344 5.27344 2.30469L4.10156 1.14258C3.63281 0.683594 3.74023 0.341797 4.14062-0.0195312L15.6152-10.8203L14.6387-11.7871L3.04688-0.898438C2.06055 0.0195312 1.98242 0.996094 2.8418 1.86523ZM9.25781-16.3281C8.83789-15.918 8.80859-15.3418 9.04297-14.9512C9.27734-14.5898 9.73633-14.3555 10.3809-14.5215C11.8457-14.8633 13.3691-14.9219 14.7949-13.9844L14.209-12.5293C13.8672-11.6992 14.043-11.1133 14.5801-10.5664L16.875-8.25195C17.3633-7.76367 17.7734-7.74414 18.3398-7.8418L19.4043-8.03711L20.0684-7.36328L20.0293-6.80664C19.9902-6.30859 20.1172-5.92773 20.6055-5.44922L21.3672-4.70703C21.8457-4.22852 22.4609-4.19922 22.9297-4.66797L25.8398-7.58789C26.3086-8.05664 26.2891-8.65234 25.8105-9.13086L25.0391-9.89258C24.5605-10.3711 24.1895-10.5273 23.7109-10.4883L23.1348-10.4395L22.4902-11.0742L22.7344-12.1973C22.8613-12.7637 22.7051-13.2031 22.1191-13.7891L19.9219-15.9766C16.582-19.2969 12.1484-19.2188 9.25781-16.3281ZM10.752-15.957C13.1836-17.7344 16.4746-17.4316 18.7012-15.2051L21.1328-12.793C21.3672-12.5586 21.4062-12.373 21.3379-12.0312L21.0156-10.5469L22.5195-9.0625L23.5059-9.12109C23.7598-9.13086 23.8379-9.11133 24.0332-8.91602L24.6094-8.33984L22.168-5.89844L21.5918-6.47461C21.3965-6.66992 21.3672-6.74805 21.377-7.01172L21.4453-7.98828L19.9512-9.47266L18.4277-9.21875C18.1055-9.15039 17.959-9.17969 17.7148-9.41406L15.7129-11.416C15.459-11.6504 15.4297-11.8164 15.5859-12.1875L16.4648-14.2773C14.9023-15.7324 12.8711-16.3574 10.8398-15.7617C10.6836-15.7227 10.625-15.8496 10.752-15.957Z"/>
  </g>
  <text style="stroke:none;fill:black;font-family:sans-serif;font-size:13;font-weight:bold;" transform="matrix(1 0 0 1 1289 1953)">Exporting</text>
  <text style="stroke:none;fill:black;font-family:sans-serif;font-size:13;" transform="matrix(1 0 0 1 1289 1971)">Symbols should be outlined when exporting to ensure the</text>
  <text style="stroke:none;fill:black;font-family:sans-serif;font-size:13;" transform="matrix(1 0 0 1 1289 1989)">design is preserved when submitting to Xcode.</text>
  <text id="template-version" style="stroke:none;fill:black;font-family:sans-serif;font-size:13;text-anchor:end;" transform="matrix(1 0 0 1 3036 1933)">Template v.4.0</text>
  <text style="stroke:none;fill:black;font-family:sans-serif;font-size:13;text-anchor:end;" transform="matrix(1 0 0 1 3036 1951)">Requires Xcode 14 or greater</text>
  <text id="descriptive-name" style="stroke:none;fill:black;font-family:sans-serif;font-size:13;text-anchor:end;" transform="matrix(1 0 0 1 3036 1969)">Generated from multiply</text>
  <text style="stroke:none;fill:black;font-family:sans-serif;font-size:13;text-anchor:end;" transform="matrix(1 0 0 1 3036 1987)">Typeset at 100 points</text>
  <text style="stroke:none;fill:black;font-family:sans-serif;font-size:13;" transform="matrix(1 0 0 1 263 726)">Small</text>
  <text style="stroke:none;fill:black;font-family:sans-serif;font-size:13;" transform="matrix(1 0 0 1 263 1156)">Medium</text>
  <text style="stroke:none;fill:black;font-family:sans-serif;font-size:13;" transform="matrix(1 0 0 1 263 1586)">Large</text>
 </g>
 <g id="Guides">
  <g id="H-reference" style="fill:#27AAE1;stroke:none;" transform="matrix(1 0 0 1 339 696)">
   <path d="M0.993654 0L3.63775 0L29.3281-67.1323L30.0303-67.1323L30.0303-70.459L28.1226-70.459ZM11.6885-24.4799L46.9815-24.4799L46.2315-26.7285L12.4385-26.7285ZM55.1196 0L57.7637 0L30.6382-70.459L29.4326-70.459L29.4326-67.1323Z"/>
  </g>
  <line id="Baseline-S" style="fill:none;stroke:#27AAE1;opacity:1;stroke-width:0.5;" x1="263" x2="3036" y1="696" y2="696"/>
  <line id="Capline-S" style="fill:none;stroke:#27AAE1;opacity:1;stroke-width:0.5;" x1="263" x2="3036" y1="625.541" y2="625.541"/>
  <g id="H-reference" style="fill:#27AAE1;stroke:none;" transform="matrix(1 0 0 1 339 1126)">
   <path d="M0.993654 0L3.63775 0L29.3281-67.1323L30.0303-67.1323L30.0303-70.459L28.1226-70.459ZM11.6885-24.4799L46.9815-24.4799L46.2315-26.7285L12.4385-26.7285ZM55.1196 0L57.7637 0L30.6382-70.459L29.4326-70.459L29.4326-67.1323Z"/>
  </g>
  <line id="Baseline-M" style="fill:none;stroke:#27AAE1;opacity:1;stroke-width:0.5;" x1="263" x2="3036" y1="1126" y2="1126"/>
  <line id="Capline-M" style="fill:none;stroke:#27AAE1;opacity:1;stroke-width:0.5;" x1="263" x2="3036" y1="1055.54" y2="1055.54"/>
  <g id="H-reference" style="fill:#27AAE1;stroke:none;" transform="matrix(1 0 0 1 339 1556)">
   <path d="M0.993654 0L3.63775 0L29.3281-67.1323L30.0303-67.1323L30.0303-70.459L28.1226-70.459ZM11.6885-24.4799L46.9815-24.4799L46.2315-26.7285L12.4385-26.7285ZM55.1196 0L57.7637 0L30.6382-70.459L29.4326-70.459L29.4326-67.1323Z"/>
  </g>
  <line id="Baseline-L" style="fill:none;stroke:#27AAE1;opacity:1;stroke-width:0.5;" x1="263" x2="3036" y1="1556" y2="1556"/>
  <line id="Capline-L" style="fill:none;stroke:#27AAE1;opacity:1;stroke-width:0.5;" x1="263" x2="3036" y1="1485.54" y2="1485.54"/>
  <line id="left-margin-Regular-M" style="fill:none;stroke:#00AEEF;stroke-width:0.5;opacity:1.0;" x1="1404.92" x2="1404.92" y1="1030.79" y2="1150.12"/>
  <line id="right-margin-Regular-M" style="fill:none;stroke:#00AEEF;stroke-width:0.5;opacity:1.0;" x1="1494.77" x2="1494.77" y1="1030.79" y2="1150.12"/>
 </g>
 <g id="Symbols">
  <g id="Black-L" transform="matrix(1 0 0 1 2871.92 1556)">
   <path d="M19.4903 6.85662C24.0572 11.4236 32.0073 11.2483 36.225 7.03184L61.5338-18.299L86.7478 6.97344C91.1771 11.3652 98.8936 11.3652 103.462 6.79822C108.049 2.23008 108.029-5.48632 103.637-9.91683L78.4229-35.1881L103.637-60.3801C108.029-64.8314 108.049-72.5478 103.462-77.1148C98.8936-81.6829 91.1771-81.6621 86.7478-77.29L61.5338-52.0772L36.225-77.3484C32.0073-81.5453 24.0572-81.7413 19.4903-77.1732C14.9221-72.6062 15.1182-64.6562 19.3151-60.4385L44.6447-35.1881L19.3151-9.85843C15.1182-5.66154 14.9221 2.28848 19.4903 6.85662Z"/>
  </g>
  <g id="Heavy-L" transform="matrix(1 0 0 1 2576.1 1556)">
   <path d="M19.043 6.41486C23.0078 10.3796 29.8901 10.2457 33.5927 6.54873L60.6359-20.5303L87.6257 6.5041C91.471 10.335 98.1749 10.335 102.145 6.37024C106.14 2.3999 106.11-4.30397 102.279-8.15487L75.2893-35.1837L102.279-62.1377C106.11-66.0187 106.14-72.7226 102.145-76.6873C98.1749-80.6577 91.471-80.6275 87.6257-76.8212L60.6359-49.837L33.5927-76.8658C29.8901-80.5382 23.0078-80.7023 19.043-76.732C15.0727-72.7672 15.2368-65.8849 18.9092-62.1823L45.9826-35.1837L18.9092-8.11025C15.2368-4.43784 15.0727 2.44452 19.043 6.41486Z"/>
  </g>
  <g id="Bold-L" transform="matrix(1 0 0 1 2280.49 1556)">
   <path d="M18.4972 5.8618C21.724 9.08861 27.2996 9.001 30.3645 5.94941L59.5218-23.2592L88.672 5.9202C91.8025 9.05941 97.2612 9.05941 100.501 5.83259C103.766 2.59255 103.728-2.86624 100.589-6.00988L71.4387-35.1761L100.589-64.275C103.728-67.4567 103.766-72.9155 100.501-76.1423C97.2612-79.3823 91.8025-79.3443 88.672-76.2299L59.5218-47.0929L30.3645-76.2591C27.2996-79.2859 21.724-79.4115 18.4972-76.1715C15.2572-72.9447 15.3828-67.3691 18.4096-64.3042L47.605-35.1761L18.4096-5.98068C15.3828-2.95385 15.2572 2.62175 18.4972 5.8618Z"/>
  </g>
  <g id="Semibold-L" transform="matrix(1 0 0 1 1984.53 1556)">
   <path d="M18.1209 5.48052C20.839 8.19862 25.5138 8.1429 28.1389 5.53624L58.7538-25.1405L89.3933 5.51767C92.0309 8.18005 96.6314 8.18005 99.368 5.46195C102.129 2.72536 102.086-1.87507 99.4237-4.53114L68.7841-35.1708L99.4237-65.7485C102.086-68.448 102.129-73.0484 99.368-75.7665C96.6314-78.5031 92.0309-78.4597 89.3933-75.8222L58.7538-45.2011L28.1389-75.8408C25.5138-78.4226 20.839-78.5217 18.1209-75.7851C15.3844-73.067 15.4834-68.3922 18.0652-65.7671L48.7234-35.1708L18.0652-4.51257C15.4834-1.93079 15.3844 2.74394 18.1209 5.48052Z"/>
  </g>
  <g id="Medium-L" transform="matrix(1 0 0 1 1688.39 1556)">
   <path d="M17.8356 5.19142C20.168 7.5238 24.1597 7.49226 26.4514 5.22296L58.1714-26.5669L89.9403 5.21245C92.2042 7.51328 96.1538 7.51328 98.5086 5.18091C100.888 2.82607 100.841-1.12353 98.5402-3.4099L66.7713-35.1668L98.5402-66.8658C100.841-69.1996 100.888-73.1492 98.5086-75.4816C96.1538-77.8364 92.2042-77.789 89.9403-75.5131L58.1714-43.7667L26.4514-75.5236C24.1597-77.7679 20.168-77.8469 17.8356-75.4921C15.4808-73.1597 15.5598-69.1681 17.8041-66.8763L49.5715-35.1668L17.8041-3.39939C15.5598-1.15507 15.4808 2.83658 17.8356 5.19142Z"/>
  </g>
  <g id="Regular-L" transform="matrix(1 0 0 1 1392.43 1556)">
   <path d="M17.4635 4.81433C19.2927 6.64359 22.3934 6.64359 24.2503 4.81433L57.4118-28.4275L90.6537 4.81433C92.4301 6.64359 95.5308 6.64359 97.3877 4.81433C99.2698 2.95742 99.217-0.143258 97.3877-1.94741L64.1459-35.1616L97.3877-68.3231C99.217-70.18 99.2698-73.2807 97.3877-75.1099C95.5308-76.9668 92.4301-76.9141 90.6537-75.1099L57.4118-41.8957L24.2503-75.1099C22.3934-76.9141 19.2927-76.9668 17.4635-75.1099C15.6066-73.2807 15.6593-70.18 17.4635-68.3231L50.6777-35.1616L17.4635-1.94741C15.6593-0.143258 15.6066 2.95742 17.4635 4.81433Z"/>
  </g>
  <g id="Light-L" transform="matrix(1 0 0 1 1096.5 1556)">
   <path d="M17.139 4.39446C18.5102 5.76567 20.8093 5.76567 22.2273 4.39446L56.6293-30.088L91.1117 4.39446C92.4492 5.76567 94.7483 5.76567 96.1663 4.39446C97.5712 2.9765 97.5375 0.677409 96.1663-0.706866L61.6839-35.1425L96.1663-69.5445C97.5375-70.9625 97.5712-73.2616 96.1663-74.6328C94.7483-76.0507 92.4492-76.0171 91.1117-74.6328L56.6293-40.1971L22.2273-74.6328C20.8093-76.0171 18.5102-76.0507 17.139-74.6328C15.7211-73.2616 15.7548-70.9625 17.139-69.5445L51.5747-35.1425L17.139-0.706866C15.7548 0.677409 15.7211 2.9765 17.139 4.39446Z"/>
  </g>
  <g id="Thin-L" transform="matrix(1 0 0 1 800.828 1556)">
   <path d="M16.7099 3.83914C17.4753 4.60454 18.7143 4.60454 19.5517 3.83914L55.5944-32.284L91.7175 3.83914C92.4745 4.60454 93.7134 4.60454 94.5508 3.83914C95.3246 3.00174 95.3162 1.76281 94.5508 0.933852L58.4277-35.1173L94.5508-71.16C95.3162-71.9974 95.3246-73.2363 94.5508-74.0017C93.7134-74.8391 92.4745-74.8307 91.7175-74.0017L55.5944-37.9506L19.5517-74.0017C18.7143-74.8307 17.4753-74.8391 16.7099-74.0017C15.8725-73.2363 15.881-71.9974 16.7099-71.16L52.7611-35.1173L16.7099 0.933852C15.881 1.76281 15.8725 3.00174 16.7099 3.83914Z"/>
  </g>
  <g id="Ultralight-L" transform="matrix(1 0 0 1 504.647 1556)">
   <path d="M16.4901 3.5547C16.9452 4.00982 17.6412 4.00982 18.1812 3.5547L55.0643-33.4088L92.0278 3.5547C92.4874 4.00982 93.1833 4.00982 93.7234 3.5547C94.174 3.01467 94.1785 2.31874 93.7234 1.77422L56.7599-35.1044L93.7234-71.9875C94.1785-72.5275 94.174-73.2234 93.7234-73.6785C93.1833-74.2186 92.4874-74.2231 92.0278-73.6785L55.0643-36.7999L18.1812-73.6785C17.6412-74.2231 16.9452-74.2186 16.4901-73.6785C15.9501-73.2234 15.9456-72.5275 16.4901-71.9875L53.3687-35.1044L16.4901 1.77422C15.9456 2.31874 15.9501 3.01467 16.4901 3.5547Z"/>
  </g>
  <g id="Black-M" transform="matrix(1 0 0 1 2885.12 1126)">
   <path d="M15.4404-2.30084C19.4341 1.69287 26.4023 1.52158 30.0531-2.12955L48.3384-20.4201L66.5148-2.18664C70.3888 1.63577 77.1286 1.63577 81.122-2.35793C85.1212-6.35136 85.1157-13.0912 81.2933-16.9649L63.117-35.1986L81.2933-53.3697C85.1157-57.249 85.1212-63.9888 81.122-67.9825C77.1286-71.9759 70.3888-71.9704 66.5148-68.1538L48.3384-49.9772L30.0531-68.2109C26.4023-71.8562 19.4341-72.033 15.4404-68.0396C11.4469-64.0459 11.6237-57.0777 15.2691-53.4268L33.5599-35.1986L15.2691-16.9078C11.6237-13.2625 11.4469-6.29426 15.4404-2.30084Z"/>
  </g>
  <g id="Heavy-M" transform="matrix(1 0 0 1 2589.2 1126)">
   <path d="M15.0331-2.69396C18.4803 0.753297 24.4788 0.622432 27.6666-2.56309L47.5329-22.4481L67.3307-2.60671C70.6743 0.709675 76.4983 0.709675 79.9478-2.73758C83.4114-6.1871 83.395-12.011 80.0786-15.3569L60.2808-35.1961L80.0786-54.9752C83.395-58.3375 83.4114-64.1614 79.9478-67.6087C76.4983-71.0582 70.6743-71.0418 67.3307-67.7395L47.5329-47.944L27.6666-67.7831C24.4788-70.9545 18.4803-71.1018 15.0331-67.6523C11.5835-64.205 11.7308-58.2066 14.9022-55.0188L34.785-35.1961L14.9022-15.3133C11.7308-12.1419 11.5835-6.14348 15.0331-2.69396Z"/>
  </g>
  <g id="Bold-M" transform="matrix(1 0 0 1 2293.37 1126)">
   <path d="M14.5775-3.13372C17.4134-0.297752 22.327-0.383397 24.9968-3.04807L46.6318-24.7168L68.2435-3.07662C70.9937-0.3263 75.7931-0.3263 78.6342-3.16226C81.4988-6.00336 81.4702-10.8028 78.7199-13.5582L57.1082-35.1932L78.7199-56.7711C81.4702-59.5551 81.4988-64.3545 78.6342-67.1905C75.7931-70.0316 70.9937-70.0029 68.2435-67.2761L46.6318-45.6696L24.9968-67.3047C22.327-69.9458 17.4134-70.0601 14.5775-67.219C11.7364-64.383 11.8506-59.4694 14.4918-56.7996L36.1554-35.1932L14.4918-13.5296C11.8506-10.8884 11.7364-5.97481 14.5775-3.13372Z"/>
  </g>
  <g id="Semibold-M" transform="matrix(1 0 0 1 1997.27 1126)">
   <path d="M14.2634-3.43688C16.6779-1.02234 20.8437-1.07681 23.1564-3.38241L46.0106-26.2808L68.8727-3.40057C71.2139-1.0405 75.307-1.0405 77.7287-3.45504C80.1802-5.87669 80.1432-9.9698 77.7831-12.3181L54.921-35.1912L77.7831-58.0092C80.1432-60.3945 80.1802-64.4876 77.7287-66.9022C75.307-69.3238 71.2139-69.2868 68.8727-66.9566L46.0106-44.1016L23.1564-66.9748C20.8437-69.2505 16.6779-69.342 14.2634-66.9203C11.8417-64.5058 11.9332-60.34 14.2089-58.0273L37.1002-35.1912L14.2089-12.2999C11.9332-10.0243 11.8417-5.85854 14.2634-3.43688Z"/>
  </g>
  <g id="Medium-M" transform="matrix(1 0 0 1 1701.03 1126)">
   <path d="M14.0252-3.66676C16.1202-1.57175 19.7189-1.60258 21.7608-3.63593L45.5396-27.4667L69.3498-3.6462C71.3809-1.58203 74.9384-1.58203 77.042-3.67704C79.1805-5.78065 79.137-9.3382 77.0729-11.3778L53.2626-35.1897L77.0729-58.9479C79.137-61.031 79.1805-64.5886 77.042-66.6836C74.9384-68.7872 71.3809-68.7437 69.3498-66.7144L45.5396-42.9128L21.7608-66.7247C19.7189-68.7232 16.1202-68.7974 14.0252-66.6938C11.9216-64.5988 11.9959-61.0002 13.9944-58.9582L37.8166-35.1897L13.9944-11.3675C11.9959-9.36903 11.9216-5.77037 14.0252-3.66676Z"/>
  </g>
  <g id="Regular-M" transform="matrix(1 0 0 1 1404.92 1126)">
   <path d="M13.7146-3.9666C15.3928-2.28838 18.2518-2.28838 19.9406-3.9666L44.9252-29.0135L69.9722-3.9666C71.5986-2.28838 74.4576-2.28838 76.1464-3.9666C77.8764-5.65537 77.8246-8.51437 76.1464-10.1514L51.0995-35.1878L76.1464-60.1724C77.8246-61.8612 77.8764-64.7202 76.1464-66.3984C74.4576-68.0872 71.5986-68.0354 69.9722-66.3984L44.9252-41.362L19.9406-66.3984C18.2518-68.0354 15.3928-68.0872 13.7146-66.3984C12.0258-64.7202 12.0776-61.8612 13.7146-60.1724L38.751-35.1878L13.7146-10.1514C12.0776-8.51437 12.0258-5.65537 13.7146-3.9666Z"/>
  </g>
  <g id="Light-M" transform="matrix(1 0 0 1 1108.91 1126)">
   <path d="M13.4237-4.34304C14.6912-3.07548 16.8316-3.07548 18.1268-4.34304L44.2237-30.5022L70.3828-4.34304C71.6157-3.07548 73.7561-3.07548 75.0513-4.34304C76.3535-5.63826 76.3189-7.7786 75.0513-9.03918L48.8922-35.1707L75.0513-61.2675C76.3189-62.5628 76.3535-64.7031 75.0513-65.9707C73.7561-67.2659 71.6157-67.2312 70.3828-65.9707L44.2237-39.8392L18.1268-65.9707C16.8316-67.2312 14.6912-67.2659 13.4237-65.9707C12.1285-64.7031 12.1631-62.5628 13.4237-61.2675L39.5552-35.1707L13.4237-9.03918C12.1631-7.7786 12.1285-5.63826 13.4237-4.34304Z"/>
  </g>
  <g id="Thin-M" transform="matrix(1 0 0 1 813.126 1126)">
   <path d="M13.039-4.84091C13.7634-4.11649 14.9533-4.11649 15.728-4.84091L43.2958-32.4711L70.926-4.84091C71.6384-4.11649 72.8282-4.11649 73.603-4.84091C74.3394-5.61563 74.3274-6.80549 73.603-7.56819L45.9728-35.148L73.603-62.7159C74.3274-63.4906 74.3394-64.6805 73.603-65.4049C72.8282-66.1796 71.6384-66.1676 70.926-65.4049L43.2958-37.825L15.728-65.4049C14.9533-66.1676 13.7634-66.1796 13.039-65.4049C12.2643-64.6805 12.2763-63.4906 13.039-62.7159L40.6188-35.148L13.039-7.56819C12.2763-6.80549 12.2643-5.61563 13.039-4.84091Z"/>
  </g>
  <g id="Ultralight-M" transform="matrix(1 0 0 1 516.891 1126)">
   <path d="M12.8419-5.09592C13.2882-4.64968 13.9912-4.64968 14.4993-5.09592L42.8206-33.4795L71.2042-5.09592C71.65-4.64968 72.353-4.64968 72.8611-5.09592C73.3078-5.60403 73.3073-6.30706 72.8611-6.81476L44.4775-35.1365L72.8611-63.4577C73.3073-63.9659 73.3078-64.6689 72.8611-65.1151C72.353-65.6232 71.65-65.6228 71.2042-65.1151L42.8206-36.7934L14.4993-65.1151C13.9912-65.6228 13.2882-65.6232 12.8419-65.1151C12.3338-64.6689 12.3342-63.9659 12.8419-63.4577L41.1636-35.1365L12.8419-6.81476C12.3342-6.30706 12.3338-5.60403 12.8419-5.09592Z"/>
  </g>
  <g id="Black-S" transform="matrix(1 0 0 1 2895.36 696)">
   <path d="M12.207-9.32617C15.4785-6.05469 21.1914-6.20117 24.1699-9.17969L38.0859-23.0957L51.9043-9.22852C55.0781-6.10352 60.5957-6.10352 63.8672-9.375C67.1387-12.6465 67.1387-18.1641 64.0137-21.3379L50.1953-35.2051L64.0137-49.0234C67.1387-52.1973 67.1387-57.7148 63.8672-60.9863C60.5957-64.2578 55.0781-64.2578 51.9043-61.1328L38.0859-47.3145L24.1699-61.1816C21.1914-64.1602 15.4785-64.3066 12.207-61.0352C8.93555-57.7637 9.08203-52.0508 12.0605-49.0723L25.9766-35.2051L12.0605-21.2891C9.08203-18.3105 8.93555-12.5977 12.207-9.32617Z"/>
  </g>
  <g id="Heavy-S" transform="matrix(1 0 0 1 2599.24 696)">
   <path d="M11.8959-9.61428C14.7525-6.75768 19.7278-6.86959 22.3606-9.50237L37.4867-24.64L52.5497-9.53968C55.3201-6.79498 60.1462-6.79498 63.0029-9.65159C65.871-12.5082 65.8595-17.3343 63.1148-20.1048L48.0518-35.2051L63.1148-50.2566C65.8595-53.0386 65.871-57.8647 63.0029-60.7213C60.1462-63.5779 55.3201-63.5663 52.5497-60.8332L37.4867-45.7702L22.3606-60.8705C19.7278-63.4917 14.7525-63.6152 11.8959-60.7586C9.03927-57.902 9.1627-52.9266 11.784-50.2939L26.9216-35.2051L11.784-20.0675C9.1627-17.4462 9.03927-12.4709 11.8959-9.61428Z"/>
  </g>
  <g id="Bold-S" transform="matrix(1 0 0 1 2303.19 696)">
   <path d="M11.5479-9.93652C13.9404-7.54395 18.0908-7.61719 20.3369-9.86328L36.8164-26.3672L53.2715-9.8877C55.5908-7.56836 59.6436-7.56836 62.0361-9.96094C64.4531-12.3535 64.4287-16.4062 62.1094-18.7256L45.6543-35.2051L62.1094-51.6357C64.4287-53.9795 64.4531-58.0322 62.0361-60.4248C59.6436-62.8174 55.5908-62.793 53.2715-60.498L36.8164-44.043L20.3369-60.5225C18.0908-62.7441 13.9404-62.8418 11.5479-60.4492C9.15527-58.0566 9.25293-53.9062 11.4746-51.6602L27.9785-35.2051L11.4746-18.7012C9.25293-16.4795 9.15527-12.3291 11.5479-9.93652Z"/>
  </g>
  <g id="Semibold-S" transform="matrix(1 0 0 1 2006.93 696)">
   <path d="M11.3079-10.1587C13.3806-8.08604 16.9622-8.13262 18.9417-10.1121L36.3543-27.558L53.7691-10.1276C55.7774-8.10156 59.297-8.10156 61.3696-10.1742C63.4756-12.2469 63.4423-15.7664 61.4162-17.7747L44.0014-35.2051L61.4162-52.5866C63.4423-54.6282 63.4756-58.1478 61.3696-60.2204C59.297-62.2931 55.7774-62.2598 53.7691-60.267L36.3543-42.8521L18.9417-60.2825C16.9622-62.2287 13.3806-62.3086 11.3079-60.2359C9.23525-58.1633 9.31514-54.5816 11.2613-52.6021L28.7072-35.2051L11.2613-17.7592C9.31514-15.813 9.23525-12.2313 11.3079-10.1587Z"/>
  </g>
  <g id="Medium-S" transform="matrix(1 0 0 1 1710.56 696)">
   <path d="M11.126-10.3271C12.9561-8.49707 16.1064-8.52344 17.8838-10.3008L36.0039-28.4609L54.1465-10.3096C55.9189-8.50586 59.0342-8.50586 60.8643-10.3359C62.7344-12.166 62.6943-15.2812 60.8906-17.0537L42.748-35.2051L60.8906-53.3076C62.6943-55.1201 62.7344-58.2354 60.8643-60.0654C59.0342-61.8955 55.9189-61.8555 54.1465-60.0918L36.0039-41.9492L17.8838-60.1006C16.1064-61.8379 12.9561-61.9043 11.126-60.0742C9.2959-58.2441 9.3623-55.0938 11.0996-53.3164L29.2598-35.2051L11.0996-17.0449C9.3623-15.3076 9.2959-12.1572 11.126-10.3271Z"/>
  </g>
  <g id="Regular-S" transform="matrix(1 0 0 1 1414.3 696)">
   <path d="M10.8887-10.5469C12.4023-9.0332 14.9902-9.0332 16.5039-10.5469L35.5469-29.6387L54.6387-10.5469C56.1035-9.0332 58.6914-9.0332 60.2051-10.5469C61.7676-12.0605 61.7188-14.6484 60.2051-16.1133L41.1133-35.2051L60.2051-54.248C61.7188-55.7617 61.7676-58.3496 60.2051-59.8633C58.6914-61.377 56.1035-61.3281 54.6387-59.8633L35.5469-40.7715L16.5039-59.8633C14.9902-61.3281 12.4023-61.377 10.8887-59.8633C9.375-58.3496 9.42383-55.7617 10.8887-54.248L29.9805-35.2051L10.8887-16.1133C9.42383-14.6484 9.375-12.0605 10.8887-10.5469Z"/>
  </g>
  <g id="Light-S" transform="matrix(1 0 0 1 1118.21 696)">
   <path d="M10.6313-10.8799C11.7817-9.72949 13.7339-9.72949 14.8994-10.8799L34.9263-30.9556L55.002-10.8799C56.1187-9.72949 58.0708-9.72949 59.2363-10.8799C60.4204-12.0454 60.3867-13.9976 59.2363-15.1294L39.1607-35.1899L59.2363-55.2168C60.3867-56.3823 60.4204-58.3345 59.2363-59.4849C58.0708-60.6504 56.1187-60.6167 55.002-59.4849L34.9263-39.4243L14.8994-59.4849C13.7339-60.6167 11.7817-60.6504 10.6313-59.4849C9.46582-58.3345 9.49951-56.3823 10.6313-55.2168L30.6919-35.1899L10.6313-15.1294C9.49951-13.9976 9.46582-12.0454 10.6313-10.8799Z"/>
  </g>
  <g id="Thin-S" transform="matrix(1 0 0 1 822.317 696)">
   <path d="M10.291-11.3203C10.9609-10.6504 12.0723-10.6504 12.7774-11.3203L34.1055-32.6972L55.4824-11.3203C56.1387-10.6504 57.25-10.6504 57.9551-11.3203C58.6387-12.0254 58.625-13.1367 57.9551-13.8281L36.5782-35.1699L57.9551-56.498C58.625-57.2031 58.6387-58.3145 57.9551-58.9844C57.25-59.6895 56.1387-59.6758 55.4824-58.9844L34.1055-37.6426L12.7774-58.9844C12.0723-59.6758 10.9609-59.6895 10.291-58.9844C9.58594-58.3145 9.59961-57.2031 10.291-56.498L31.6328-35.1699L10.291-13.8281C9.59961-13.1367 9.58594-12.0254 10.291-11.3203Z"/>
  </g>
  <g id="Ultralight-S" transform="matrix(1 0 0 1 526.026 696)">
   <path d="M10.1167-11.5459C10.5405-11.1221 11.2212-11.1221 11.6905-11.5459L33.6851-33.5893L55.7285-11.5459C56.1489-11.1221 56.8296-11.1221 57.2989-11.5459C57.7261-12.0151 57.7227-12.6958 57.2989-13.1616L35.2554-35.1597L57.2989-57.1543C57.7227-57.6235 57.7261-58.3042 57.2989-58.728C56.8296-59.1973 56.1489-59.1939 55.7285-58.728L33.6851-36.73L11.6905-58.728C11.2212-59.1939 10.5405-59.1973 10.1167-58.728C9.64746-58.3042 9.65088-57.6235 10.1167-57.1543L32.1147-35.1597L10.1167-13.1616C9.65088-12.6958 9.64746-12.0151 10.1167-11.5459Z"/>
  </g>
 </g>
</svg>
